<svg width="36" height="36" viewBox="0 0 36 36" fill="none" xmlns="http://www.w3.org/2000/svg">
<path d="M32.5758 27.3584L27.9084 5.16775C27.8481 4.87756 27.731 4.60215 27.5638 4.35736C27.3967 4.11256 27.1829 3.9032 26.9346 3.74129C26.6863 3.57939 26.4085 3.46814 26.1171 3.41393C25.8257 3.35972 25.5265 3.36362 25.2366 3.42541L18.6539 4.84009C18.0716 4.96758 17.5633 5.31981 17.2394 5.82017C16.9154 6.32053 16.8022 6.92854 16.9242 7.51197L21.5916 29.7026C21.6956 30.2089 21.9707 30.6639 22.3707 30.9912C22.7708 31.3185 23.2713 31.4981 23.7881 31.4998C23.9479 31.4996 24.1072 31.4826 24.2634 31.4492L30.8461 30.0345C31.4291 29.9067 31.9379 29.5537 32.2619 29.0525C32.5859 28.5513 32.6987 27.9424 32.5758 27.3584ZM19.125 7.05212C19.125 7.04369 19.125 7.03947 19.125 7.03947L25.7063 5.63322L26.1745 7.86494L19.5933 9.28103L19.125 7.05212ZM20.0559 11.4776L26.64 10.0643L27.1097 12.3003L20.5312 13.7149L20.0559 11.4776ZM20.9897 15.9171L27.5737 14.5024L29.4441 23.3956L22.86 24.8102L20.9897 15.9171ZM30.375 27.8351L23.7937 29.2413L23.3255 27.0096L29.9067 25.5935L30.375 27.8224C30.375 27.8309 30.375 27.8351 30.375 27.8351ZM14.625 4.49978H7.875C7.27826 4.49978 6.70597 4.73683 6.28401 5.15879C5.86205 5.58075 5.625 6.15304 5.625 6.74978V29.2498C5.625 29.8465 5.86205 30.4188 6.28401 30.8408C6.70597 31.2627 7.27826 31.4998 7.875 31.4998H14.625C15.2217 31.4998 15.794 31.2627 16.216 30.8408C16.6379 30.4188 16.875 29.8465 16.875 29.2498V6.74978C16.875 6.15304 16.6379 5.58075 16.216 5.15879C15.794 4.73683 15.2217 4.49978 14.625 4.49978ZM7.875 6.74978H14.625V8.99978H7.875V6.74978ZM7.875 11.2498H14.625V24.7498H7.875V11.2498ZM14.625 29.2498H7.875V26.9998H14.625V29.2498Z" fill="white"/>
</svg>
