<svg width="20" height="20" viewBox="0 0 20 20" fill="none" xmlns="http://www.w3.org/2000/svg">
<g clip-path="url(#clip0_39_872)">
<path d="M20 10.2212C20 9.40134 19.9319 8.80305 19.7846 8.18262H10.2041V11.8831H15.8276C15.7143 12.8027 15.1021 14.1876 13.7415 15.1182L13.7224 15.2421L16.7516 17.5353L16.9615 17.5558C18.8889 15.8163 20 13.2569 20 10.2212Z" fill="#4285F4"/>
<path d="M10.2036 19.971C12.9586 19.971 15.2715 19.0846 16.9609 17.5557L13.741 15.1182C12.8793 15.7054 11.7228 16.1153 10.2036 16.1153C7.50517 16.1153 5.21494 14.3759 4.39853 11.9717L4.27886 11.9816L1.12908 14.3637L1.08789 14.4756C2.76588 17.7329 6.2126 19.971 10.2036 19.971Z" fill="#34A853"/>
<path d="M4.39905 11.9723C4.18363 11.3519 4.05897 10.6871 4.05897 10.0002C4.05897 9.31323 4.18363 8.64849 4.38772 8.02806L4.38201 7.89592L1.19276 5.47559L1.08841 5.52409C0.39683 6.87579 0 8.39369 0 10.0002C0 11.6067 0.39683 13.1245 1.08841 14.4762L4.39905 11.9723Z" fill="#FBBC05"/>
<path d="M10.2036 3.88391C12.1196 3.88391 13.4121 4.6927 14.1491 5.36859L17.0289 2.62089C15.2603 1.01439 12.9586 0.0283203 10.2036 0.0283203C6.2126 0.0283203 2.76588 2.26634 1.08789 5.52364L4.3872 8.02761C5.21494 5.6234 7.50517 3.88391 10.2036 3.88391Z" fill="#EB4335"/>
</g>
<defs>
<clipPath id="clip0_39_872">
<rect width="20" height="20" fill="white"/>
</clipPath>
</defs>
</svg>
