<svg width="250" height="49" viewBox="0 0 250 49" fill="none" xmlns="http://www.w3.org/2000/svg">
<path d="M35.9492 7.70312C37.7233 7.9529 38.7712 9.57013 38.3252 11.2832L31.3115 38.4316C30.8653 40.1446 29.069 41.3523 27.2949 41.1025L26.7725 41.0234L19.751 45.9072L21.873 40.2891L4.25293 37.6475C2.53025 37.3706 1.4426 35.7405 1.88867 34.0273L7.7959 11.2725C8.01296 10.4357 8.83405 9.87234 9.69531 10.0107L32.2021 13.3867C33.5199 13.5808 34.7868 12.5523 34.8359 11.1465C34.851 9.98874 33.9592 8.97937 32.7988 8.83398L13.1348 5.86914C12.5215 5.76454 12.2724 5.04102 12.6787 4.56445C12.8183 4.39249 13.0246 4.28442 13.2725 4.31836L13.3633 4.30371L35.9492 7.70312Z" fill="#9B3D29"/>
<path d="M15.1427 24.2367C14.9111 25.1577 13.9656 25.7961 13.0309 25.663C12.0963 25.5299 11.5258 24.6754 11.757 23.7547C11.9887 22.8337 12.9338 22.1952 13.8688 22.3283C14.8035 22.4614 15.3735 23.3159 15.1427 24.2367Z" fill="white"/>
<path d="M20.3968 24.9847C20.1651 25.9054 19.2195 26.544 18.2849 26.4109C17.3498 26.278 16.7798 25.4235 17.0108 24.5024C17.2425 23.5814 18.188 22.9431 19.1227 23.0762C20.0573 23.2094 20.6278 24.0633 20.3968 24.9847Z" fill="white"/>
<path d="M25.6505 25.7327C25.4192 26.6538 24.4737 27.2922 23.5387 27.1591C22.604 27.026 22.0339 26.1715 22.2648 25.2508C22.4964 24.3297 23.4419 23.6914 24.3766 23.8244C25.3112 23.9575 25.8817 24.8121 25.6505 25.7327Z" fill="white"/>
<path d="M59.1066 32.5935C57.4641 32.5935 56.0075 32.2759 54.7369 31.6406C53.4818 30.9897 52.4978 30.0523 51.785 28.8281C51.0722 27.5885 50.7158 26.0854 50.7158 24.3189C50.7158 22.5835 51.0645 21.1036 51.7618 19.8795C52.4591 18.6399 53.4198 17.6946 54.6439 17.0438C55.8681 16.3775 57.2627 16.0444 58.8277 16.0444C60.2533 16.0444 61.4619 16.2923 62.4536 16.7881C63.4609 17.2685 64.2279 17.9426 64.7547 18.8103C65.2971 19.6626 65.576 20.6543 65.5915 21.7854H64.9407C64.8477 21.0881 64.592 20.4218 64.1736 19.7865C63.7708 19.1357 63.1819 18.6089 62.4072 18.206C61.6479 17.7876 60.6794 17.5784 59.5018 17.5784C58.2931 17.5784 57.2239 17.8418 56.2942 18.3687C55.38 18.8955 54.6672 19.6548 54.1558 20.6465C53.6445 21.6227 53.3888 22.7849 53.3888 24.133C53.3888 25.4966 53.6522 26.6665 54.1791 27.6427C54.7214 28.6189 55.4574 29.3705 56.3872 29.8973C57.3324 30.4087 58.4016 30.6643 59.5947 30.6643C60.7569 30.6643 61.7331 30.4706 62.5234 30.0833C63.3136 29.6804 63.918 29.1458 64.3363 28.4795C64.7702 27.8132 65.0181 27.0771 65.0801 26.2714H66.6607C66.6142 27.418 66.312 28.4717 65.7542 29.4325C65.1963 30.3932 64.3673 31.1602 63.2672 31.7335C62.1825 32.3069 60.7956 32.5935 59.1066 32.5935ZM65.5915 21.7854L64.9639 20.3676V16.393H66.498V21.7854H65.5915Z" fill="#191514"/>
<path d="M74.7934 32.5238C73.5383 32.5238 72.4149 32.2836 71.4232 31.8033C70.4469 31.3074 69.6722 30.5946 69.0988 29.6649C68.541 28.7197 68.2621 27.5807 68.2621 26.2481C68.2621 24.9155 68.541 23.7844 69.0988 22.8546C69.6722 21.9094 70.4469 21.1966 71.4232 20.7162C72.4149 20.2204 73.5383 19.9725 74.7934 19.9725C76.0486 19.9725 77.1642 20.2204 78.1405 20.7162C79.1322 21.1966 79.9069 21.9094 80.4648 22.8546C81.0381 23.7844 81.3248 24.9155 81.3248 26.2481C81.3248 27.5807 81.0381 28.7197 80.4648 29.6649C79.9069 30.5946 79.1322 31.3074 78.1405 31.8033C77.1642 32.2836 76.0486 32.5238 74.7934 32.5238ZM74.7934 31.0595C75.5837 31.0595 76.2655 30.8658 76.8388 30.4784C77.4277 30.091 77.8848 29.5332 78.2102 28.8049C78.5356 28.0766 78.6983 27.2011 78.6983 26.1784C78.6983 25.1867 78.5356 24.3422 78.2102 23.6449C77.8848 22.9321 77.4277 22.3898 76.8388 22.0179C76.2655 21.6305 75.5837 21.4368 74.7934 21.4368C74.0187 21.4368 73.3369 21.6305 72.748 22.0179C72.1592 22.3898 71.7021 22.9398 71.3767 23.6681C71.0513 24.3809 70.8886 25.2409 70.8886 26.2481C70.8886 27.2708 71.0513 28.1386 71.3767 28.8514C71.7021 29.5642 72.1592 30.1143 72.748 30.5016C73.3369 30.8735 74.0187 31.0595 74.7934 31.0595Z" fill="#191514"/>
<path d="M91.1581 32.2449V31.013H92.8781V24.226C92.8781 23.3737 92.6379 22.7539 92.1576 22.3665C91.6927 21.9636 91.0651 21.7622 90.2749 21.7622C89.7015 21.7622 89.1669 21.8939 88.6711 22.1573C88.1752 22.4207 87.7723 22.8391 87.4624 23.4125C87.1525 23.9703 86.9976 24.7063 86.9976 25.6206H86.4165C86.4165 24.3654 86.5869 23.3272 86.9278 22.506C87.2842 21.6847 87.8111 21.0804 88.5084 20.693C89.2212 20.2901 90.0967 20.0887 91.1349 20.0887C92.3435 20.0887 93.3275 20.4063 94.0868 21.0417C94.8615 21.677 95.2489 22.7152 95.2489 24.1562V31.013H96.9922V32.2449H91.1581ZM82.5349 32.2449V31.013H84.5803V21.5065H82.7208V20.2746H86.7187V24.5281L86.9976 24.4816V31.013H88.7176V32.2449H82.5349Z" fill="#191514"/>
<path d="M106.344 32.2449V31.013H108.064V24.226C108.064 23.3737 107.824 22.7539 107.344 22.3665C106.879 21.9636 106.251 21.7622 105.461 21.7622C104.888 21.7622 104.353 21.8939 103.857 22.1573C103.361 22.4207 102.959 22.8391 102.649 23.4125C102.339 23.9703 102.184 24.7063 102.184 25.6206H101.603C101.603 24.3654 101.773 23.3272 102.114 22.506C102.47 21.6847 102.997 21.0804 103.695 20.693C104.407 20.2901 105.283 20.0887 106.321 20.0887C107.53 20.0887 108.514 20.4063 109.273 21.0417C110.048 21.677 110.435 22.7152 110.435 24.1562V31.013H112.178V32.2449H106.344ZM97.7211 32.2449V31.013H99.7664V21.5065H97.907V20.2746H101.905V24.5281L102.184 24.4816V31.013H103.904V32.2449H97.7211Z" fill="#191514"/>
<path d="M119.137 32.5238C117.928 32.5238 116.875 32.2836 115.976 31.8033C115.077 31.3229 114.372 30.6179 113.861 29.6881C113.365 28.7429 113.117 27.5962 113.117 26.2481C113.117 24.9 113.365 23.7611 113.861 22.8314C114.372 21.9016 115.069 21.1966 115.953 20.7162C116.851 20.2204 117.89 19.9725 119.067 19.9725L119.137 21.3438C118.378 21.3438 117.719 21.522 117.161 21.8784C116.619 22.2348 116.201 22.7694 115.906 23.4822C115.612 24.1795 115.465 25.055 115.465 26.1087C115.465 27.5188 115.821 28.6422 116.534 29.4789C117.262 30.3002 118.246 30.7108 119.486 30.7108C120.245 30.7108 120.865 30.5869 121.345 30.3389C121.825 30.091 122.197 29.7888 122.461 29.4325C122.74 29.0606 122.941 28.6964 123.065 28.34H124.646C124.584 28.8204 124.429 29.3085 124.181 29.8043C123.933 30.3002 123.584 30.7573 123.135 31.1757C122.701 31.5786 122.151 31.904 121.485 32.1519C120.834 32.3998 120.051 32.5238 119.137 32.5238ZM114.233 26.2016V24.9H122.484L124.832 25.5276V26.2016H114.233ZM122.484 24.9C122.468 24.2492 122.329 23.6526 122.066 23.1103C121.818 22.568 121.446 22.1418 120.95 21.8319C120.47 21.5065 119.865 21.3438 119.137 21.3438L119.067 19.9725C120.322 19.9725 121.376 20.2049 122.228 20.6698C123.096 21.1346 123.747 21.7854 124.181 22.6222C124.615 23.4589 124.832 24.4274 124.832 25.5276L122.484 24.9Z" fill="#191514"/>
<path d="M132.715 32.5238C131.522 32.5238 130.46 32.2836 129.53 31.8033C128.601 31.3229 127.872 30.6179 127.346 29.6881C126.819 28.7429 126.555 27.5962 126.555 26.2481C126.555 24.9 126.827 23.7689 127.369 22.8546C127.911 21.9249 128.663 21.2198 129.623 20.7395C130.584 20.2591 131.677 20.0189 132.901 20.0189L133.203 21.3438C132.351 21.3438 131.599 21.5298 130.948 21.9016C130.313 22.2735 129.817 22.8004 129.461 23.4822C129.12 24.164 128.949 24.9853 128.949 25.946C128.949 26.8912 129.12 27.7202 129.461 28.433C129.817 29.1303 130.305 29.6726 130.925 30.06C131.56 30.4474 132.304 30.6411 133.156 30.6411C133.714 30.6411 134.202 30.5559 134.621 30.3854C135.055 30.215 135.411 29.998 135.69 29.7346C135.984 29.4557 136.209 29.1613 136.364 28.8514C136.519 28.5415 136.612 28.247 136.643 27.9681H138.13C138.115 28.5105 137.991 29.0528 137.759 29.5952C137.526 30.1375 137.185 30.6334 136.736 31.0827C136.287 31.5166 135.721 31.8652 135.039 32.1287C134.373 32.3921 133.598 32.5238 132.715 32.5238ZM136.364 24.9465C135.93 24.9465 135.581 24.838 135.318 24.6211C135.07 24.3887 134.946 24.102 134.946 23.7611C134.946 23.3582 135.109 23.0561 135.434 22.8546C135.76 22.6532 136.17 22.5447 136.666 22.5292L136.596 23.4357C136.457 23.0793 136.248 22.7462 135.969 22.4362C135.705 22.1108 135.349 21.8474 134.9 21.646C134.45 21.4445 133.885 21.3438 133.203 21.3438L132.901 20.0189C133.985 20.0189 134.9 20.1817 135.643 20.5071C136.403 20.817 136.984 21.2276 137.387 21.7389C137.79 22.2348 137.991 22.7694 137.991 23.3427C137.991 23.8386 137.836 24.2337 137.526 24.5281C137.232 24.8071 136.844 24.9465 136.364 24.9465Z" fill="#191514"/>
<path d="M145.839 32.5006C144.429 32.5006 143.39 32.0744 142.724 31.2222C142.058 30.3544 141.756 29.169 141.818 27.666L142.004 21.7157H138.703V20.3676H139.772C140.485 20.3676 141.043 20.2824 141.446 20.1119C141.864 19.9415 142.159 19.6703 142.329 19.2984C142.515 18.9265 142.608 18.4462 142.608 17.8573V17.0903H144.212V28.2006C144.212 28.9598 144.382 29.5564 144.723 29.9903C145.064 30.4242 145.575 30.6411 146.257 30.6411C146.954 30.6411 147.466 30.4319 147.791 30.0135C148.117 29.5797 148.279 28.9753 148.279 28.2006V25.8762H149.86V28.1773C149.86 29.5254 149.527 30.5869 148.86 31.3616C148.209 32.1209 147.202 32.5006 145.839 32.5006ZM144.212 21.7157V20.2746H150.208V21.7157H144.212Z" fill="#191514"/>
<path d="M151.038 32.2449V31.013H153.246V17.6017H151.084V16.3698H155.733V31.013H158.15V32.2449H151.038ZM164.054 32.4541C163.279 32.4541 162.644 32.3146 162.148 32.0357C161.668 31.7568 161.304 31.3616 161.056 30.8503C160.823 30.3389 160.684 29.7424 160.637 29.0606L160.568 28.0379C160.506 27.0307 160.234 26.3024 159.754 25.853C159.289 25.3881 158.631 25.1557 157.778 25.1557H155.733V24.7838H159.475C160.777 24.7683 161.683 25.086 162.195 25.7368C162.721 26.3876 163.008 27.3328 163.055 28.5725L163.101 29.3162C163.132 29.7501 163.241 30.1143 163.427 30.4087C163.612 30.7031 163.946 30.8503 164.426 30.8503C164.906 30.8503 165.239 30.7108 165.425 30.4319C165.627 30.1375 165.728 29.7656 165.728 29.3162V26.2946H167.308V29.0838C167.308 30.091 167.052 30.9045 166.541 31.5243C166.03 32.1442 165.201 32.4541 164.054 32.4541ZM155.733 25.1557V23.7379H160.637C161.784 23.7379 162.683 23.4899 163.334 22.9941C164 22.4982 164.333 21.7544 164.333 20.7627C164.333 19.7555 164 19.0117 163.334 18.5314C162.683 18.0355 161.784 17.7876 160.637 17.7876H155.733V16.3698H161.381C163.024 16.3698 164.341 16.7262 165.332 17.439C166.34 18.1362 166.843 19.1977 166.843 20.6233C166.843 22.0334 166.34 23.0948 165.332 23.8076C164.341 24.5204 163.039 24.8768 161.428 24.8768H159.754L159.452 25.1557H155.733Z" fill="#191514"/>
<path d="M174.774 32.5238C173.566 32.5238 172.512 32.2836 171.613 31.8033C170.715 31.3229 170.01 30.6179 169.498 29.6881C169.002 28.7429 168.754 27.5962 168.754 26.2481C168.754 24.9 169.002 23.7611 169.498 22.8314C170.01 21.9016 170.707 21.1966 171.59 20.7162C172.489 20.2204 173.527 19.9725 174.705 19.9725L174.774 21.3438C174.015 21.3438 173.357 21.522 172.799 21.8784C172.256 22.2348 171.838 22.7694 171.544 23.4822C171.249 24.1795 171.102 25.055 171.102 26.1087C171.102 27.5188 171.458 28.6422 172.171 29.4789C172.9 30.3002 173.883 30.7108 175.123 30.7108C175.882 30.7108 176.502 30.5869 176.983 30.3389C177.463 30.091 177.835 29.7888 178.098 29.4325C178.377 29.0606 178.579 28.6964 178.703 28.34H180.283C180.221 28.8204 180.066 29.3085 179.818 29.8043C179.57 30.3002 179.222 30.7573 178.772 31.1757C178.338 31.5786 177.788 31.904 177.122 32.1519C176.471 32.3998 175.689 32.5238 174.774 32.5238ZM169.87 26.2016V24.9H178.122L180.469 25.5276V26.2016H169.87ZM178.122 24.9C178.106 24.2492 177.967 23.6526 177.703 23.1103C177.455 22.568 177.083 22.1418 176.587 21.8319C176.107 21.5065 175.503 21.3438 174.774 21.3438L174.705 19.9725C175.96 19.9725 177.014 20.2049 177.866 20.6698C178.734 21.1346 179.384 21.7854 179.818 22.6222C180.252 23.4589 180.469 24.4274 180.469 25.5276L178.122 24.9Z" fill="#191514"/>
<path d="M184.569 24.2957C184.151 24.2957 183.771 24.1795 183.43 23.9471C183.105 23.6991 182.942 23.3117 182.942 22.7849C182.942 22.1806 183.182 21.677 183.663 21.2741C184.159 20.8712 184.802 20.569 185.592 20.3676C186.382 20.1507 187.219 20.0422 188.102 20.0422C189.528 20.0422 190.636 20.3289 191.426 20.9022C192.216 21.4755 192.604 22.3433 192.588 23.5054L190.333 23.1568C190.333 22.5525 190.101 22.0876 189.636 21.7622C189.187 21.4368 188.513 21.2741 187.614 21.2741C187.072 21.2741 186.553 21.3361 186.057 21.46C185.561 21.584 185.15 21.7854 184.825 22.0644C184.515 22.3278 184.344 22.6842 184.313 23.1335L184.29 22.0179C184.786 22.0334 185.181 22.1341 185.476 22.32C185.77 22.506 185.91 22.7926 185.894 23.18C185.879 23.5209 185.755 23.7921 185.522 23.9935C185.29 24.195 184.972 24.2957 184.569 24.2957ZM193.657 32.4773C192.666 32.4773 191.906 32.2061 191.379 31.6638C190.853 31.106 190.589 30.3234 190.589 29.3162V28.5725H190.333V25.1557H190.194L190.333 24.1098V23.1568L192.588 23.5054V29.5022C192.588 29.9206 192.689 30.2692 192.89 30.5481C193.107 30.8115 193.425 30.9433 193.843 30.9433C194.246 30.9433 194.548 30.8115 194.75 30.5481C194.967 30.2692 195.075 29.9206 195.075 29.5022V26.1087H196.656V29.3395C196.656 30.3312 196.4 31.106 195.889 31.6638C195.377 32.2061 194.633 32.4773 193.657 32.4773ZM186.103 32.4773C184.926 32.4773 183.957 32.1984 183.198 31.6406C182.454 31.0672 182.082 30.277 182.082 29.2697C182.082 28.5415 182.237 27.9526 182.547 27.5033C182.872 27.0384 183.314 26.6743 183.872 26.4108C184.43 26.1319 185.073 25.9227 185.801 25.7833L187.777 25.3649C188.257 25.2719 188.691 25.1402 189.078 24.9698C189.466 24.7993 189.768 24.5669 189.985 24.2725C190.217 23.978 190.333 23.6062 190.333 23.1568L190.403 25.1557H190.333C190.179 25.4966 189.907 25.7755 189.52 25.9925C189.148 26.2094 188.675 26.3798 188.102 26.5038L187.079 26.713C186.615 26.8215 186.188 26.9609 185.801 27.1314C185.414 27.2863 185.104 27.4955 184.871 27.7589C184.639 28.0224 184.523 28.3788 184.523 28.8281C184.523 29.4479 184.747 29.9206 185.197 30.246C185.646 30.5714 186.25 30.7341 187.01 30.7341C187.599 30.7341 188.141 30.6101 188.637 30.3622C189.148 30.1143 189.559 29.7114 189.869 29.1535C190.179 28.5802 190.333 27.8287 190.333 26.8989L191.008 26.9454C191.008 28.278 190.791 29.355 190.357 30.1762C189.923 30.982 189.334 31.5708 188.59 31.9427C187.846 32.2991 187.017 32.4773 186.103 32.4773Z" fill="#191514"/>
<path d="M203.346 32.5006C202.261 32.5006 201.301 32.2604 200.464 31.78C199.627 31.2842 198.969 30.5714 198.488 29.6416C198.008 28.6964 197.768 27.5652 197.768 26.2481C197.768 24.931 198.008 23.8076 198.488 22.8779C198.969 21.9481 199.627 21.2431 200.464 20.7627C201.301 20.2669 202.261 20.0189 203.346 20.0189C204.508 20.0189 205.461 20.2669 206.205 20.7627C206.964 21.2586 207.522 21.9714 207.878 22.9011C208.25 23.8308 208.436 24.9388 208.436 26.2249L208.576 26.2714C208.576 27.542 208.382 28.6499 207.995 29.5952C207.607 30.5249 207.026 31.2454 206.251 31.7568C205.477 32.2526 204.508 32.5006 203.346 32.5006ZM204.136 30.8968C204.896 30.8968 205.562 30.7186 206.135 30.3622C206.709 30.0058 207.158 29.4789 207.483 28.7816C207.809 28.0843 207.971 27.2398 207.971 26.2481C207.971 25.2564 207.809 24.4197 207.483 23.7379C207.158 23.0406 206.709 22.5137 206.135 22.1573C205.562 21.7854 204.896 21.5995 204.136 21.5995C203.377 21.5995 202.711 21.7854 202.137 22.1573C201.564 22.5137 201.115 23.0406 200.789 23.7379C200.479 24.4197 200.324 25.2564 200.324 26.2481C200.324 27.2398 200.479 28.0843 200.789 28.7816C201.115 29.4789 201.564 30.0058 202.137 30.3622C202.711 30.7186 203.377 30.8968 204.136 30.8968ZM208.041 32.2449V29.0838L208.32 26.2481L207.832 23.8541V16.7417H206.019V15.5098H210.249V31.013H212.062V32.2449H208.041Z" fill="#191514"/>
<path d="M219.085 32.5238C217.876 32.5238 216.822 32.2836 215.924 31.8033C215.025 31.3229 214.32 30.6179 213.808 29.6881C213.313 28.7429 213.065 27.5962 213.065 26.2481C213.065 24.9 213.313 23.7611 213.808 22.8314C214.32 21.9016 215.017 21.1966 215.9 20.7162C216.799 20.2204 217.837 19.9725 219.015 19.9725L219.085 21.3438C218.325 21.3438 217.667 21.522 217.109 21.8784C216.567 22.2348 216.148 22.7694 215.854 23.4822C215.559 24.1795 215.412 25.055 215.412 26.1087C215.412 27.5188 215.769 28.6422 216.481 29.4789C217.21 30.3002 218.194 30.7108 219.433 30.7108C220.193 30.7108 220.812 30.5869 221.293 30.3389C221.773 30.091 222.145 29.7888 222.408 29.4325C222.687 29.0606 222.889 28.6964 223.013 28.34H224.593C224.531 28.8204 224.376 29.3085 224.128 29.8043C223.88 30.3002 223.532 30.7573 223.082 31.1757C222.649 31.5786 222.098 31.904 221.432 32.1519C220.781 32.3998 219.999 32.5238 219.085 32.5238ZM214.18 26.2016V24.9H222.432L224.779 25.5276V26.2016H214.18ZM222.432 24.9C222.416 24.2492 222.277 23.6526 222.013 23.1103C221.765 22.568 221.393 22.1418 220.898 21.8319C220.417 21.5065 219.813 21.3438 219.085 21.3438L219.015 19.9725C220.27 19.9725 221.324 20.2049 222.176 20.6698C223.044 21.1346 223.694 21.7854 224.128 22.6222C224.562 23.4589 224.779 24.4274 224.779 25.5276L222.432 24.9Z" fill="#191514"/>
<path d="M226.157 32.2449V31.013H228.202V21.5065H226.343V20.2746H230.318V24.2725L230.597 24.226V31.013H233.339V32.2449H226.157ZM229.783 24.9698C229.799 23.7921 230 22.8391 230.387 22.1108C230.79 21.3671 231.325 20.8247 231.991 20.4838C232.673 20.1274 233.44 19.9492 234.292 19.9492C235.206 19.9337 235.942 20.1507 236.5 20.6C237.074 21.0494 237.36 21.6692 237.36 22.4595C237.36 22.9553 237.213 23.3582 236.919 23.6681C236.64 23.978 236.268 24.133 235.803 24.133C235.4 24.133 235.075 24.0168 234.827 23.7844C234.579 23.5519 234.455 23.2653 234.455 22.9244C234.455 22.4905 234.602 22.1651 234.897 21.9481C235.206 21.7312 235.648 21.6382 236.221 21.6692L236.012 22.506C235.981 22.0566 235.78 21.708 235.408 21.46C235.051 21.2121 234.571 21.0959 233.967 21.1114C233.347 21.1114 232.781 21.2586 232.27 21.553C231.759 21.8319 231.348 22.258 231.038 22.8314C230.744 23.4047 230.597 24.1175 230.597 24.9698H229.783Z" fill="#191514"/>
<path d="M245.139 32.4541C244.287 32.4541 243.504 32.3224 242.791 32.0589C242.094 31.78 241.505 31.3461 241.025 30.7573C240.545 30.1685 240.227 29.3937 240.072 28.433H240.607C240.916 29.0993 241.296 29.6261 241.745 30.0135C242.195 30.3854 242.667 30.6488 243.163 30.8038C243.675 30.9588 244.178 31.0362 244.674 31.0362C245.449 31.0362 246.053 30.8735 246.487 30.5481C246.921 30.2227 247.138 29.7734 247.138 29.2C247.138 28.7971 247.022 28.4795 246.789 28.247C246.572 27.9991 246.278 27.8054 245.906 27.666C245.55 27.5265 245.147 27.418 244.697 27.3406L243.024 27.0616C242.203 26.9067 241.474 26.6898 240.839 26.4108C240.219 26.1319 239.731 25.7523 239.375 25.2719C239.034 24.7761 238.863 24.1485 238.863 23.3892C238.863 22.289 239.235 21.46 239.979 20.9022C240.723 20.3289 241.683 20.0422 242.861 20.0422C243.667 20.0422 244.411 20.1739 245.092 20.4373C245.774 20.7008 246.348 21.1191 246.812 21.6925C247.277 22.2503 247.572 22.9941 247.696 23.9238H247.161C246.898 23.2885 246.541 22.7926 246.092 22.4362C245.658 22.0644 245.193 21.8087 244.697 21.6692C244.217 21.5143 243.76 21.4368 243.326 21.4368C242.629 21.4368 242.071 21.5917 241.652 21.9016C241.234 22.1961 241.025 22.6144 241.025 23.1568C241.025 23.5442 241.118 23.8541 241.304 24.0865C241.49 24.3189 241.761 24.5049 242.117 24.6443C242.489 24.7683 242.931 24.8768 243.442 24.9698L245.092 25.2719C245.836 25.3959 246.526 25.5973 247.161 25.8762C247.812 26.1397 248.339 26.5193 248.742 27.0152C249.145 27.4955 249.346 28.1308 249.346 28.9211C249.346 30.0678 248.959 30.9433 248.184 31.5476C247.425 32.1519 246.41 32.4541 245.139 32.4541ZM239.026 32.2449V28.433H240.072L240.583 29.2465V32.2449H239.026ZM247.696 23.9238L247.208 23.1335V20.2514H248.765V23.9238H247.696Z" fill="#191514"/>
</svg>
